<?xml version="1.0" encoding="UTF-8"?><svg id="Calque_1" xmlns="http://www.w3.org/2000/svg" viewBox="0 0 303 87.2"><defs><style>.cls-1{stroke-width:5px;}.cls-1,.cls-2{stroke:#000;stroke-miterlimit:10;}.cls-2{fill:none;}</style></defs><text/><g><g><path class="cls-1" d="M18.99,31.47h-6.26L3.57,56.67h5.37l6.92-19.01,6.92,19.01h5.4l-9.19-25.2Z"/><path class="cls-1" d="M83.83,31.47v25.2h5.04V31.47h-5.04Zm-32.08,0v25.2h5.04v-16.09l10.38,16.09h6.29l-16.23-25.2h-5.48Z"/><path class="cls-1" d="M136.79,31.47v25.2h5.04V31.47h-5.04Zm-32.08,0v25.2h5.04v-16.09l10.38,16.09h6.29l-16.24-25.2h-5.47Z"/><path class="cls-1" d="M188.34,36.51v-5.04h-30.67v25.2h26.24v-4.32h-21.2v-15.84h25.63Z"/><path class="cls-1" d="M238.05,33.38c-3.43-1.9-7.18-2.85-11.26-2.85-3.41,0-6.62,.68-9.62,2.04-3,1.35-5.63,3.23-7.9,5.61-2.27,2.39-4.04,5.17-5.33,8.34-1.28,3.17-1.92,6.55-1.92,10.15h5.04c0-2.86,.5-5.56,1.51-8.1s2.41-4.79,4.21-6.73c1.8-1.95,3.9-3.48,6.28-4.59,2.39-1.12,4.97-1.68,7.73-1.68,3,0,5.86,.71,8.58,2.11,2.73,1.4,4.98,3.29,6.75,5.67l4.47-2.41c-2.26-3.15-5.1-5.67-8.54-7.56Z"/><path class="cls-1" d="M292.59,31.47l-13.57,22.07-13.53-22.07h-5.94l15.49,25.2h7.97l15.52-25.2h-5.94Z"/></g><line class="cls-2" x1="207.06" y1="56.67" x2="202.02" y2="56.67"/><line class="cls-2" x1="28.18" y1="56.67" x2="22.78" y2="56.67"/><line class="cls-2" x1="73.46" y1="56.67" x2="67.17" y2="56.67"/><line class="cls-2" x1="126.42" y1="56.67" x2="120.13" y2="56.67"/><line class="cls-2" x1="109.75" y1="56.67" x2="104.71" y2="56.67"/><line class="cls-2" x1="183.91" y1="56.67" x2="157.67" y2="56.67"/><line class="cls-2" x1="141.83" y1="56.67" x2="136.79" y2="56.67"/><line class="cls-2" x1="88.87" y1="56.67" x2="83.83" y2="56.67"/><line class="cls-2" x1="56.79" y1="56.67" x2="51.75" y2="56.67"/><line class="cls-2" x1="8.94" y1="56.67" x2="3.57" y2="56.67"/><line class="cls-2" x1="283.01" y1="56.67" x2="275.04" y2="56.67"/></g></svg>